<mxfile host="65bd71144e">
    <diagram id="AT3Oc--hQqhKPltJna_i" name="Page-2">
        <mxGraphModel dx="1500" dy="1170" grid="1" gridSize="1" guides="1" tooltips="1" connect="1" arrows="1" fold="1" page="0" pageScale="1" pageWidth="827" pageHeight="1169" math="0" shadow="0">
            <root>
                <mxCell id="0"/>
                <mxCell id="1" parent="0"/>
                <mxCell id="kpDQId7SkW1KBEFfvsAu-13" value="h&lt;sub style=&quot;font-size: 11px;&quot;&gt;t&lt;/sub&gt;" style="text;html=1;align=center;verticalAlign=middle;resizable=0;points=[];autosize=1;strokeColor=none;fillColor=none;fontSize=11;rotation=-45;" parent="1" vertex="1">
                    <mxGeometry x="192" y="84" width="28" height="29" as="geometry"/>
                </mxCell>
                <mxCell id="kpDQId7SkW1KBEFfvsAu-16" value="h&lt;sub style=&quot;font-size: 11px;&quot;&gt;t&lt;/sub&gt;" style="text;html=1;align=center;verticalAlign=middle;resizable=0;points=[];autosize=1;strokeColor=none;fillColor=none;fontSize=11;rotation=-45;" parent="1" vertex="1">
                    <mxGeometry x="213" y="104" width="28" height="29" as="geometry"/>
                </mxCell>
                <mxCell id="kpDQId7SkW1KBEFfvsAu-19" value="h&lt;sub style=&quot;font-size: 11px;&quot;&gt;t&lt;/sub&gt;" style="text;html=1;align=center;verticalAlign=middle;resizable=0;points=[];autosize=1;strokeColor=none;fillColor=none;fontSize=11;rotation=0;" parent="1" vertex="1">
                    <mxGeometry x="391" y="92" width="28" height="29" as="geometry"/>
                </mxCell>
                <mxCell id="kpDQId7SkW1KBEFfvsAu-22" value="h&lt;sub style=&quot;font-size: 11px;&quot;&gt;t&lt;/sub&gt;" style="text;html=1;align=center;verticalAlign=middle;resizable=0;points=[];autosize=1;strokeColor=none;fillColor=none;fontSize=11;rotation=0;" parent="1" vertex="1">
                    <mxGeometry x="391" y="124" width="28" height="29" as="geometry"/>
                </mxCell>
                <mxCell id="kpDQId7SkW1KBEFfvsAu-29" value="h&lt;sub style=&quot;font-size: 11px;&quot;&gt;tn&lt;/sub&gt;" style="text;html=1;align=center;verticalAlign=middle;resizable=0;points=[];autosize=1;strokeColor=none;fillColor=none;fontSize=11;rotation=0;" parent="1" vertex="1">
                    <mxGeometry x="212" y="57" width="34" height="29" as="geometry"/>
                </mxCell>
                <mxCell id="kpDQId7SkW1KBEFfvsAu-32" value="&lt;span style=&quot;font-size: 11px;&quot;&gt;ϕ&lt;/span&gt;" style="text;html=1;align=center;verticalAlign=middle;resizable=0;points=[];autosize=1;strokeColor=none;fillColor=none;fontSize=11;fontStyle=0" parent="1" vertex="1">
                    <mxGeometry x="183" y="135" width="25" height="26" as="geometry"/>
                </mxCell>
                <mxCell id="kpDQId7SkW1KBEFfvsAu-34" value="&lt;span style=&quot;font-size: 11px;&quot;&gt;ϕ&lt;/span&gt;" style="text;html=1;align=center;verticalAlign=middle;resizable=0;points=[];autosize=1;strokeColor=none;fillColor=none;fontSize=11;fontStyle=0" parent="1" vertex="1">
                    <mxGeometry x="198" y="64" width="25" height="26" as="geometry"/>
                </mxCell>
                <mxCell id="kpDQId7SkW1KBEFfvsAu-37" value="Signal trace" style="text;html=1;align=center;verticalAlign=middle;resizable=0;points=[];autosize=1;strokeColor=none;fillColor=none;fontSize=10;" parent="1" vertex="1">
                    <mxGeometry x="244" y="16" width="72" height="25" as="geometry"/>
                </mxCell>
                <mxCell id="kpDQId7SkW1KBEFfvsAu-38" value="Low &lt;br style=&quot;font-size: 10px;&quot;&gt;threshold" style="text;html=1;align=center;verticalAlign=middle;resizable=0;points=[];autosize=1;strokeColor=none;fillColor=none;fontSize=10;" parent="1" vertex="1">
                    <mxGeometry x="301" y="38" width="60" height="37" as="geometry"/>
                </mxCell>
                <mxCell id="kpDQId7SkW1KBEFfvsAu-39" value="High&lt;br style=&quot;font-size: 10px;&quot;&gt;threshold" style="text;html=1;align=center;verticalAlign=middle;resizable=0;points=[];autosize=1;strokeColor=none;fillColor=none;fontSize=10;" parent="1" vertex="1">
                    <mxGeometry x="179" y="13" width="60" height="37" as="geometry"/>
                </mxCell>
                <mxCell id="kpDQId7SkW1KBEFfvsAu-41" value="Signal trace" style="text;html=1;align=center;verticalAlign=middle;resizable=0;points=[];autosize=1;strokeColor=none;fillColor=none;fontSize=10;" parent="1" vertex="1">
                    <mxGeometry x="474" y="108" width="72" height="25" as="geometry"/>
                </mxCell>
                <mxCell id="kpDQId7SkW1KBEFfvsAu-42" value="Low &lt;br style=&quot;font-size: 10px;&quot;&gt;threshold" style="text;html=1;align=center;verticalAlign=middle;resizable=0;points=[];autosize=1;strokeColor=none;fillColor=none;fontSize=10;" parent="1" vertex="1">
                    <mxGeometry x="460" y="136" width="60" height="37" as="geometry"/>
                </mxCell>
                <mxCell id="kpDQId7SkW1KBEFfvsAu-43" value="High&lt;br style=&quot;font-size: 10px;&quot;&gt;threshold" style="text;html=1;align=center;verticalAlign=middle;resizable=0;points=[];autosize=1;strokeColor=none;fillColor=none;fontSize=10;" parent="1" vertex="1">
                    <mxGeometry x="461" y="75" width="60" height="37" as="geometry"/>
                </mxCell>
                <mxCell id="kpDQId7SkW1KBEFfvsAu-44" value="&lt;span style=&quot;font-size: 11px;&quot;&gt;ϕ = 0&lt;sup style=&quot;font-size: 11px;&quot;&gt;o&lt;/sup&gt;&lt;/span&gt;" style="text;html=1;align=center;verticalAlign=middle;resizable=0;points=[];autosize=1;strokeColor=none;fillColor=none;fontSize=11;fontStyle=0" parent="1" vertex="1">
                    <mxGeometry x="379" y="60" width="50" height="31" as="geometry"/>
                </mxCell>
                <mxCell id="2" value="y\ =\ mx+\frac{b}{\sqrt{m^{2}+1}}" style="text;whiteSpace=wrap;html=1;fontStyle=1" vertex="1" parent="1">
                    <mxGeometry x="-357" y="-85" width="191" height="28" as="geometry"/>
                </mxCell>
            </root>
        </mxGraphModel>
    </diagram>
    <diagram id="XuNfZw7tdeQ4s0rW8FvO" name="Page-1">
        <mxGraphModel dx="452" dy="257" grid="1" gridSize="4" guides="1" tooltips="1" connect="1" arrows="1" fold="1" page="0" pageScale="1" pageWidth="827" pageHeight="1169" math="0" shadow="0">
            <root>
                <mxCell id="0"/>
                <mxCell id="1" parent="0"/>
                <mxCell id="3" value="" style="edgeStyle=none;orthogonalLoop=1;jettySize=auto;html=1;endArrow=classic;startArrow=classic;endSize=8;startSize=8;" edge="1" parent="1">
                    <mxGeometry width="100" relative="1" as="geometry">
                        <mxPoint x="224" y="360" as="sourcePoint"/>
                        <mxPoint x="616" y="360" as="targetPoint"/>
                        <Array as="points"/>
                    </mxGeometry>
                </mxCell>
                <mxCell id="4" value="" style="endArrow=none;html=1;curved=1;" edge="1" parent="1">
                    <mxGeometry width="50" height="50" relative="1" as="geometry">
                        <mxPoint x="240" y="344" as="sourcePoint"/>
                        <mxPoint x="600" y="343" as="targetPoint"/>
                        <Array as="points">
                            <mxPoint x="264" y="184"/>
                            <mxPoint x="304" y="184"/>
                            <mxPoint x="352" y="312"/>
                            <mxPoint x="392" y="312"/>
                            <mxPoint x="441" y="264"/>
                            <mxPoint x="520" y="304"/>
                        </Array>
                    </mxGeometry>
                </mxCell>
                <mxCell id="291" value="" style="group;fillColor=none;fontColor=#ffffff;strokeColor=none;" vertex="1" connectable="0" parent="1">
                    <mxGeometry x="236" y="340" width="8" height="8" as="geometry"/>
                </mxCell>
                <mxCell id="292" value="" style="endArrow=none;html=1;curved=1;fillColor=#6d8764;strokeColor=#3A5431;" edge="1" parent="291">
                    <mxGeometry width="50" height="50" relative="1" as="geometry">
                        <mxPoint y="8" as="sourcePoint"/>
                        <mxPoint x="8" as="targetPoint"/>
                    </mxGeometry>
                </mxCell>
                <mxCell id="293" value="" style="endArrow=none;html=1;curved=1;fillColor=#6d8764;strokeColor=#3A5431;" edge="1" parent="291">
                    <mxGeometry width="50" height="50" relative="1" as="geometry">
                        <mxPoint as="sourcePoint"/>
                        <mxPoint x="8" y="8" as="targetPoint"/>
                    </mxGeometry>
                </mxCell>
                <mxCell id="294" value="" style="endArrow=none;dashed=1;html=1;rounded=0;strokeWidth=1;endSize=111;jumpSize=13;" edge="1" parent="1">
                    <mxGeometry width="50" height="50" relative="1" as="geometry">
                        <mxPoint x="236" y="344" as="sourcePoint"/>
                        <mxPoint x="268" y="176" as="targetPoint"/>
                    </mxGeometry>
                </mxCell>
                <mxCell id="295" value="" style="endArrow=none;dashed=1;html=1;rounded=0;strokeWidth=1;endSize=111;jumpSize=13;" edge="1" parent="1">
                    <mxGeometry width="50" height="50" relative="1" as="geometry">
                        <mxPoint x="244" y="344" as="sourcePoint"/>
                        <mxPoint x="276" y="176" as="targetPoint"/>
                    </mxGeometry>
                </mxCell>
                <mxCell id="296" value="" style="group;fillColor=none;fontColor=#ffffff;strokeColor=none;" vertex="1" connectable="0" parent="1">
                    <mxGeometry x="268" y="194" width="8" height="8" as="geometry"/>
                </mxCell>
                <mxCell id="297" value="" style="endArrow=none;html=1;curved=1;fillColor=#6d8764;strokeColor=#3A5431;" edge="1" parent="296">
                    <mxGeometry width="50" height="50" relative="1" as="geometry">
                        <mxPoint y="8" as="sourcePoint"/>
                        <mxPoint x="8" as="targetPoint"/>
                    </mxGeometry>
                </mxCell>
                <mxCell id="298" value="" style="endArrow=none;html=1;curved=1;fillColor=#6d8764;strokeColor=#3A5431;" edge="1" parent="296">
                    <mxGeometry width="50" height="50" relative="1" as="geometry">
                        <mxPoint as="sourcePoint"/>
                        <mxPoint x="8" y="8" as="targetPoint"/>
                    </mxGeometry>
                </mxCell>
                <mxCell id="299" value="" style="endArrow=none;dashed=1;html=1;rounded=0;strokeWidth=1;endSize=111;jumpSize=13;" edge="1" parent="1">
                    <mxGeometry width="50" height="50" relative="1" as="geometry">
                        <mxPoint x="276" y="200" as="sourcePoint"/>
                        <mxPoint x="292" y="176" as="targetPoint"/>
                    </mxGeometry>
                </mxCell>
                <mxCell id="300" value="" style="endArrow=none;dashed=1;html=1;rounded=0;strokeWidth=1;endSize=111;jumpSize=13;" edge="1" parent="1">
                    <mxGeometry width="50" height="50" relative="1" as="geometry">
                        <mxPoint x="264" y="200" as="sourcePoint"/>
                        <mxPoint x="284" y="172" as="targetPoint"/>
                    </mxGeometry>
                </mxCell>
                <mxCell id="301" value="" style="group;fillColor=none;fontColor=#ffffff;strokeColor=none;" vertex="1" connectable="0" parent="1">
                    <mxGeometry x="284" y="180" width="8" height="8" as="geometry"/>
                </mxCell>
                <mxCell id="302" value="" style="endArrow=none;html=1;curved=1;fillColor=#6d8764;strokeColor=#3A5431;" edge="1" parent="301">
                    <mxGeometry width="50" height="50" relative="1" as="geometry">
                        <mxPoint y="8" as="sourcePoint"/>
                        <mxPoint x="8" as="targetPoint"/>
                    </mxGeometry>
                </mxCell>
                <mxCell id="303" value="" style="endArrow=none;html=1;curved=1;fillColor=#6d8764;strokeColor=#3A5431;" edge="1" parent="301">
                    <mxGeometry width="50" height="50" relative="1" as="geometry">
                        <mxPoint as="sourcePoint"/>
                        <mxPoint x="8" y="8" as="targetPoint"/>
                    </mxGeometry>
                </mxCell>
                <mxCell id="304" value="" style="endArrow=none;dashed=1;html=1;rounded=0;strokeWidth=1;endSize=111;jumpSize=13;" edge="1" parent="1">
                    <mxGeometry width="50" height="50" relative="1" as="geometry">
                        <mxPoint x="284" y="188" as="sourcePoint"/>
                        <mxPoint x="324" y="202" as="targetPoint"/>
                    </mxGeometry>
                </mxCell>
                <mxCell id="305" value="" style="endArrow=none;dashed=1;html=1;rounded=0;strokeWidth=1;endSize=111;jumpSize=13;" edge="1" parent="1">
                    <mxGeometry width="50" height="50" relative="1" as="geometry">
                        <mxPoint x="288" y="180" as="sourcePoint"/>
                        <mxPoint x="327.99999999999994" y="194" as="targetPoint"/>
                    </mxGeometry>
                </mxCell>
                <mxCell id="306" value="" style="group;fillColor=none;fontColor=#ffffff;strokeColor=none;" vertex="1" connectable="0" parent="1">
                    <mxGeometry x="300" y="194" width="8" height="8" as="geometry"/>
                </mxCell>
                <mxCell id="307" value="" style="endArrow=none;html=1;curved=1;fillColor=#6d8764;strokeColor=#3A5431;" edge="1" parent="306">
                    <mxGeometry width="50" height="50" relative="1" as="geometry">
                        <mxPoint y="8" as="sourcePoint"/>
                        <mxPoint x="8" as="targetPoint"/>
                    </mxGeometry>
                </mxCell>
                <mxCell id="308" value="" style="endArrow=none;html=1;curved=1;fillColor=#6d8764;strokeColor=#3A5431;" edge="1" parent="306">
                    <mxGeometry width="50" height="50" relative="1" as="geometry">
                        <mxPoint as="sourcePoint"/>
                        <mxPoint x="8" y="8" as="targetPoint"/>
                    </mxGeometry>
                </mxCell>
                <mxCell id="309" value="" style="endArrow=none;dashed=1;html=1;rounded=0;strokeWidth=1;endSize=111;jumpSize=13;" edge="1" parent="1">
                    <mxGeometry width="50" height="50" relative="1" as="geometry">
                        <mxPoint x="300" y="200" as="sourcePoint"/>
                        <mxPoint x="332" y="244" as="targetPoint"/>
                    </mxGeometry>
                </mxCell>
                <mxCell id="310" value="" style="endArrow=none;dashed=1;html=1;rounded=0;strokeWidth=1;endSize=111;jumpSize=13;" edge="1" parent="1">
                    <mxGeometry width="50" height="50" relative="1" as="geometry">
                        <mxPoint x="308" y="196" as="sourcePoint"/>
                        <mxPoint x="340" y="240" as="targetPoint"/>
                    </mxGeometry>
                </mxCell>
                <mxCell id="311" value="" style="group;fillColor=none;fontColor=#ffffff;strokeColor=none;" vertex="1" connectable="0" parent="1">
                    <mxGeometry x="316" y="224" width="8" height="8" as="geometry"/>
                </mxCell>
                <mxCell id="312" value="" style="endArrow=none;html=1;curved=1;fillColor=#6d8764;strokeColor=#3A5431;" edge="1" parent="311">
                    <mxGeometry width="50" height="50" relative="1" as="geometry">
                        <mxPoint y="8" as="sourcePoint"/>
                        <mxPoint x="8" as="targetPoint"/>
                    </mxGeometry>
                </mxCell>
                <mxCell id="313" value="" style="endArrow=none;html=1;curved=1;fillColor=#6d8764;strokeColor=#3A5431;" edge="1" parent="311">
                    <mxGeometry width="50" height="50" relative="1" as="geometry">
                        <mxPoint as="sourcePoint"/>
                        <mxPoint x="8" y="8" as="targetPoint"/>
                    </mxGeometry>
                </mxCell>
                <mxCell id="314" value="" style="endArrow=none;dashed=1;html=1;rounded=0;strokeWidth=1;endSize=111;jumpSize=13;" edge="1" parent="1">
                    <mxGeometry width="50" height="50" relative="1" as="geometry">
                        <mxPoint x="316" y="228" as="sourcePoint"/>
                        <mxPoint x="348" y="320.71441224563955" as="targetPoint"/>
                    </mxGeometry>
                </mxCell>
                <mxCell id="315" value="" style="endArrow=none;dashed=1;html=1;rounded=0;strokeWidth=1;endSize=111;jumpSize=13;" edge="1" parent="1">
                    <mxGeometry width="50" height="50" relative="1" as="geometry">
                        <mxPoint x="324" y="224" as="sourcePoint"/>
                        <mxPoint x="356" y="316.7144122456395" as="targetPoint"/>
                    </mxGeometry>
                </mxCell>
                <mxCell id="316" value="" style="group;fillColor=none;fontColor=#ffffff;strokeColor=none;" vertex="1" connectable="0" parent="1">
                    <mxGeometry x="348" y="292" width="8" height="8" as="geometry"/>
                </mxCell>
                <mxCell id="317" value="" style="endArrow=none;html=1;curved=1;fillColor=#6d8764;strokeColor=#3A5431;" edge="1" parent="316">
                    <mxGeometry width="50" height="50" relative="1" as="geometry">
                        <mxPoint y="8" as="sourcePoint"/>
                        <mxPoint x="8" as="targetPoint"/>
                    </mxGeometry>
                </mxCell>
                <mxCell id="318" value="" style="endArrow=none;html=1;curved=1;fillColor=#6d8764;strokeColor=#3A5431;" edge="1" parent="316">
                    <mxGeometry width="50" height="50" relative="1" as="geometry">
                        <mxPoint as="sourcePoint"/>
                        <mxPoint x="8" y="8" as="targetPoint"/>
                    </mxGeometry>
                </mxCell>
                <mxCell id="319" value="" style="endArrow=none;dashed=1;html=1;rounded=0;strokeWidth=1;endSize=111;jumpSize=13;" edge="1" parent="1">
                    <mxGeometry width="50" height="50" relative="1" as="geometry">
                        <mxPoint x="356" y="292" as="sourcePoint"/>
                        <mxPoint x="376" y="320" as="targetPoint"/>
                    </mxGeometry>
                </mxCell>
                <mxCell id="320" value="" style="endArrow=none;dashed=1;html=1;rounded=0;strokeWidth=1;endSize=111;jumpSize=13;" edge="1" parent="1">
                    <mxGeometry width="50" height="50" relative="1" as="geometry">
                        <mxPoint x="348" y="300" as="sourcePoint"/>
                        <mxPoint x="368" y="328" as="targetPoint"/>
                    </mxGeometry>
                </mxCell>
                <mxCell id="321" value="" style="group;fillColor=none;fontColor=#ffffff;strokeColor=none;" vertex="1" connectable="0" parent="1">
                    <mxGeometry x="368" y="308" width="8" height="8" as="geometry"/>
                </mxCell>
                <mxCell id="322" value="" style="endArrow=none;html=1;curved=1;fillColor=#6d8764;strokeColor=#3A5431;" edge="1" parent="321">
                    <mxGeometry width="50" height="50" relative="1" as="geometry">
                        <mxPoint y="8" as="sourcePoint"/>
                        <mxPoint x="8" as="targetPoint"/>
                    </mxGeometry>
                </mxCell>
                <mxCell id="323" value="" style="endArrow=none;html=1;curved=1;fillColor=#6d8764;strokeColor=#3A5431;" edge="1" parent="321">
                    <mxGeometry width="50" height="50" relative="1" as="geometry">
                        <mxPoint as="sourcePoint"/>
                        <mxPoint x="8" y="8" as="targetPoint"/>
                    </mxGeometry>
                </mxCell>
                <mxCell id="324" value="" style="endArrow=none;dashed=1;html=1;rounded=0;strokeWidth=1;endSize=111;jumpSize=13;" edge="1" parent="1">
                    <mxGeometry width="50" height="50" relative="1" as="geometry">
                        <mxPoint x="416" y="296" as="sourcePoint"/>
                        <mxPoint x="372" y="308" as="targetPoint"/>
                    </mxGeometry>
                </mxCell>
                <mxCell id="325" value="" style="endArrow=none;dashed=1;html=1;rounded=0;strokeWidth=1;endSize=111;jumpSize=13;" edge="1" parent="1">
                    <mxGeometry width="50" height="50" relative="1" as="geometry">
                        <mxPoint x="416" y="304" as="sourcePoint"/>
                        <mxPoint x="372" y="316" as="targetPoint"/>
                    </mxGeometry>
                </mxCell>
                <mxCell id="326" value="" style="group;fillColor=none;fontColor=#ffffff;strokeColor=none;" vertex="1" connectable="0" parent="1">
                    <mxGeometry x="404" y="292" width="8" height="8" as="geometry"/>
                </mxCell>
                <mxCell id="327" value="" style="endArrow=none;html=1;curved=1;fillColor=#6d8764;strokeColor=#3A5431;" edge="1" parent="326">
                    <mxGeometry width="50" height="50" relative="1" as="geometry">
                        <mxPoint y="8" as="sourcePoint"/>
                        <mxPoint x="8" as="targetPoint"/>
                    </mxGeometry>
                </mxCell>
                <mxCell id="328" value="" style="endArrow=none;html=1;curved=1;fillColor=#6d8764;strokeColor=#3A5431;" edge="1" parent="326">
                    <mxGeometry width="50" height="50" relative="1" as="geometry">
                        <mxPoint as="sourcePoint"/>
                        <mxPoint x="8" y="8" as="targetPoint"/>
                    </mxGeometry>
                </mxCell>
                <mxCell id="329" value="" style="endArrow=none;dashed=1;html=1;rounded=0;strokeWidth=1;endSize=111;jumpSize=13;" edge="1" parent="1">
                    <mxGeometry width="50" height="50" relative="1" as="geometry">
                        <mxPoint x="448" y="272" as="sourcePoint"/>
                        <mxPoint x="408" y="300" as="targetPoint"/>
                    </mxGeometry>
                </mxCell>
                <mxCell id="330" value="" style="endArrow=none;dashed=1;html=1;rounded=0;strokeWidth=1;endSize=111;jumpSize=13;" edge="1" parent="1">
                    <mxGeometry width="50" height="50" relative="1" as="geometry">
                        <mxPoint x="444" y="264" as="sourcePoint"/>
                        <mxPoint x="404" y="292" as="targetPoint"/>
                    </mxGeometry>
                </mxCell>
                <mxCell id="331" value="" style="group;fillColor=none;fontColor=#ffffff;strokeColor=none;" vertex="1" connectable="0" parent="1">
                    <mxGeometry x="444" y="271" width="8" height="8" as="geometry"/>
                </mxCell>
                <mxCell id="332" value="" style="endArrow=none;html=1;curved=1;fillColor=#6d8764;strokeColor=#3A5431;" edge="1" parent="331">
                    <mxGeometry width="50" height="50" relative="1" as="geometry">
                        <mxPoint y="8" as="sourcePoint"/>
                        <mxPoint x="8" as="targetPoint"/>
                    </mxGeometry>
                </mxCell>
                <mxCell id="333" value="" style="endArrow=none;html=1;curved=1;fillColor=#6d8764;strokeColor=#3A5431;" edge="1" parent="331">
                    <mxGeometry width="50" height="50" relative="1" as="geometry">
                        <mxPoint as="sourcePoint"/>
                        <mxPoint x="8" y="8" as="targetPoint"/>
                    </mxGeometry>
                </mxCell>
                <mxCell id="334" value="" style="endArrow=none;dashed=1;html=1;rounded=0;strokeWidth=1;endSize=111;jumpSize=13;" edge="1" parent="1">
                    <mxGeometry width="50" height="50" relative="1" as="geometry">
                        <mxPoint x="504" y="288" as="sourcePoint"/>
                        <mxPoint x="448" y="280" as="targetPoint"/>
                    </mxGeometry>
                </mxCell>
                <mxCell id="335" value="" style="endArrow=none;dashed=1;html=1;rounded=0;strokeWidth=1;endSize=111;jumpSize=13;" edge="1" parent="1">
                    <mxGeometry width="50" height="50" relative="1" as="geometry">
                        <mxPoint x="504" y="279" as="sourcePoint"/>
                        <mxPoint x="448" y="271" as="targetPoint"/>
                    </mxGeometry>
                </mxCell>
                <mxCell id="336" value="" style="group;fillColor=none;fontColor=#ffffff;strokeColor=none;" vertex="1" connectable="0" parent="1">
                    <mxGeometry x="476" y="280" width="8" height="8" as="geometry"/>
                </mxCell>
                <mxCell id="337" value="" style="endArrow=none;html=1;curved=1;fillColor=#6d8764;strokeColor=#3A5431;" edge="1" parent="336">
                    <mxGeometry width="50" height="50" relative="1" as="geometry">
                        <mxPoint y="8" as="sourcePoint"/>
                        <mxPoint x="8" as="targetPoint"/>
                    </mxGeometry>
                </mxCell>
                <mxCell id="338" value="" style="endArrow=none;html=1;curved=1;fillColor=#6d8764;strokeColor=#3A5431;" edge="1" parent="336">
                    <mxGeometry width="50" height="50" relative="1" as="geometry">
                        <mxPoint as="sourcePoint"/>
                        <mxPoint x="8" y="8" as="targetPoint"/>
                    </mxGeometry>
                </mxCell>
                <mxCell id="339" value="" style="endArrow=none;dashed=1;html=1;rounded=0;strokeWidth=1;endSize=111;jumpSize=13;" edge="1" parent="1">
                    <mxGeometry width="50" height="50" relative="1" as="geometry">
                        <mxPoint x="596" y="348" as="sourcePoint"/>
                        <mxPoint x="476" y="288" as="targetPoint"/>
                    </mxGeometry>
                </mxCell>
                <mxCell id="340" value="" style="endArrow=none;dashed=1;html=1;rounded=0;strokeWidth=1;endSize=111;jumpSize=13;" edge="1" parent="1">
                    <mxGeometry width="50" height="50" relative="1" as="geometry">
                        <mxPoint x="608" y="339" as="sourcePoint"/>
                        <mxPoint x="484" y="276" as="targetPoint"/>
                    </mxGeometry>
                </mxCell>
            </root>
        </mxGraphModel>
    </diagram>
</mxfile>